<?xml version="1.0" standalone="no"?><svg xmlns="http://www.w3.org/2000/svg" viewBox="0 0 1440 320"><path fill="#00685933" fill-opacity="1" d="M0,128L26.7,106.7C53.3,85,107,43,160,69.3C213.3,96,267,192,320,208C373.3,224,427,160,480,122.7C533.3,85,587,75,640,90.7C693.3,107,747,149,800,149.3C853.3,149,907,107,960,117.3C1013.3,128,1067,192,1120,197.3C1173.3,203,1227,149,1280,138.7C1333.3,128,1387,160,1413,176L1440,192L1440,320L1413.3,320C1386.7,320,1333,320,1280,320C1226.7,320,1173,320,1120,320C1066.7,320,1013,320,960,320C906.7,320,853,320,800,320C746.7,320,693,320,640,320C586.7,320,533,320,480,320C426.7,320,373,320,320,320C266.7,320,213,320,160,320C106.7,320,53,320,27,320L0,320Z"></path></svg>